<svg width="24" height="22" viewBox="0 0 24 22" fill="none" xmlns="http://www.w3.org/2000/svg">
<path d="M17.18 0.619003C15.0683 0.619003 13.1783 1.64567 12 3.22067C11.3981 2.41429 10.6166 1.75929 9.71744 1.30768C8.81826 0.856067 7.82619 0.62027 6.81998 0.619003C3.23831 0.619003 0.333313 3.53567 0.333313 7.14067C0.333313 8.529 0.55498 9.81234 0.93998 11.0023C2.78331 16.8357 8.46498 20.324 11.2766 21.2807C11.6733 21.4207 12.3266 21.4207 12.7233 21.2807C15.535 20.324 21.2166 16.8357 23.06 11.0023C23.445 9.81234 23.6666 8.529 23.6666 7.14067C23.6666 3.53567 20.7616 0.619003 17.18 0.619003Z" fill="black"/>
</svg>
