<svg width="35" height="35" viewBox="0 0 35 35" fill="none" xmlns="http://www.w3.org/2000/svg">
<path d="M11.4034 25.836L11.3597 25.793C11.2086 25.6258 11.1171 25.4133 11.0993 25.1886C11.0816 24.9639 11.1385 24.7397 11.2614 24.5507L15.5585 17.9262C15.6676 17.7579 15.7247 17.5613 15.7228 17.3609C15.721 17.1604 15.6602 16.9649 15.5481 16.7987L11.129 10.2549C11.0018 10.0685 10.9399 9.84523 10.9529 9.61995C10.9659 9.39468 11.0531 9.18004 11.2009 9.00951C11.3487 8.83899 11.5487 8.72215 11.7699 8.67722C11.991 8.6323 12.2208 8.66181 12.4234 8.76115L27.9109 16.33C28.095 16.4045 28.2535 16.531 28.3668 16.6941C28.4802 16.8572 28.5436 17.0498 28.5492 17.2483C28.5549 17.4468 28.5026 17.6427 28.3988 17.812C28.2949 17.9813 28.144 18.1166 27.9644 18.2015L12.6198 26.056C12.4208 26.1572 12.1942 26.1905 11.9746 26.1507C11.7549 26.111 11.5543 26.0005 11.4034 25.836Z" fill="black"/>
</svg>
