<svg width="26" height="31" viewBox="0 0 26 31" fill="none" xmlns="http://www.w3.org/2000/svg">
<path d="M24 29C24 23.7755 19.0698 19.55 13 19.55C6.93015 19.55 2 23.7755 2 29M13 15.5C14.6981 15.5 16.3267 14.7888 17.5275 13.523C18.7282 12.2571 19.4028 10.5402 19.4028 8.75C19.4028 6.95979 18.7282 5.2429 17.5275 3.97703C16.3267 2.71116 14.6981 2 13 2C11.3019 2 9.6733 2.71116 8.47254 3.97703C7.27178 5.2429 6.59721 6.95979 6.59721 8.75C6.59721 10.5402 7.27178 12.2571 8.47254 13.523C9.6733 14.7888 11.3019 15.5 13 15.5V15.5Z" stroke="white" stroke-width="2.5" stroke-linecap="round" stroke-linejoin="round"/>
</svg>
